# Blender 3.3.1
# www.blender.org
mtllib cactus-small.mtl
o cactus_1
v -0.000000 -0.000000 -0.217943
v -0.000000 1.683681 -0.170089
v 0.160722 -0.000000 -0.154109
v 0.160722 1.683681 -0.118248
v 0.227295 0.000000 0.000000
v 0.227295 1.683681 0.006905
v 0.160722 0.000000 0.154109
v 0.160722 1.683681 0.132059
v -0.000000 0.000000 0.217943
v -0.000000 1.683681 0.183900
v -0.160722 0.000000 0.154109
v -0.160722 1.683681 0.132059
v -0.227295 0.000000 0.000000
v -0.227295 1.683681 0.006905
v -0.160722 -0.000000 -0.154109
v -0.160722 1.683681 -0.118248
v -0.000000 0.841841 -0.187066
v 0.160722 0.841841 -0.129229
v 0.227295 0.841841 0.010402
v 0.160722 0.841841 0.150033
v -0.000000 0.841841 0.207870
v -0.160722 0.841841 0.150033
v -0.227295 0.841841 0.010402
v -0.160722 0.841841 -0.129229
v 0.160722 0.577207 -0.137050
v 0.227295 0.577207 0.007132
v 0.160722 0.577207 0.151314
v -0.000000 0.577207 0.211037
v -0.160722 0.577207 0.151314
v -0.227295 0.577207 0.007132
v -0.160722 0.577207 -0.137050
v -0.000000 0.577207 -0.196772
v -0.000000 0.935949 -0.183615
v 0.160722 0.935949 -0.126448
v 0.227295 0.935949 0.011565
v 0.160722 0.935949 0.149578
v -0.000000 0.935949 0.206745
v -0.160722 0.935949 0.149578
v -0.227295 0.935949 0.011565
v -0.160722 0.935949 -0.126448
v -0.000000 1.178521 -0.174718
v 0.160722 1.178521 -0.119279
v 0.227295 1.178521 0.014562
v 0.160722 1.178521 0.148403
v -0.000000 1.178521 0.203842
v -0.160722 1.178521 0.148403
v -0.227295 1.178521 0.014562
v -0.160722 1.178521 -0.119279
v 0.146438 1.800784 -0.117690
v 0.000000 1.800784 -0.169298
v 0.207095 1.800784 0.006905
v 0.146438 1.800784 0.131500
v -0.000000 1.800784 0.183109
v -0.146438 1.800784 0.131500
v -0.207095 1.800784 0.006905
v -0.146439 1.800784 -0.117690
v 0.197690 0.821247 -0.052301
v 0.175985 0.783485 -0.098941
v 0.166929 0.693872 -0.120097
v 0.187295 0.596935 -0.079254
v 0.190689 0.613290 0.086237
v 0.176961 0.699473 0.115554
v 0.186684 0.793702 0.094986
v 0.065476 1.955224 -0.036094
v 0.128804 1.892941 -0.102685
v -0.000000 1.892929 -0.148083
v -0.000000 1.955224 -0.059170
v 0.086410 1.955224 0.006905
v 0.182151 1.892953 0.006905
v 0.065476 1.955224 0.049904
v 0.128804 1.892941 0.116496
v -0.000000 1.955224 0.072980
v -0.000000 1.892929 0.161893
v -0.065476 1.955224 0.049904
v -0.128804 1.892941 0.116496
v -0.086410 1.955224 0.006905
v -0.182151 1.892953 0.006905
v -0.065476 1.955224 -0.036094
v -0.128804 1.892941 -0.102685
v 0.600880 0.916963 0.114829
v 0.528959 1.001174 0.100522
v 0.514718 1.016292 -0.065050
v 0.536746 0.962844 -0.097491
v 0.524886 1.027462 0.007745
v 0.679164 0.861211 -0.083798
v 0.726390 0.850416 0.004975
v 0.593674 0.914023 -0.112206
v 0.673414 0.870011 0.094437
v 0.344738 0.856288 0.101061
v 0.349733 0.829385 -0.103743
v 0.494982 0.681727 0.008998
v 0.384363 0.760485 -0.121446
v 0.388944 0.768334 0.120838
v 0.342706 0.876889 -0.062724
v 0.360074 0.897018 0.008188
v 0.449027 0.690433 -0.083451
v 0.443262 0.704963 0.096121
v 0.774957 1.173290 0.123169
v 0.662678 1.231092 -0.076824
v 0.658678 1.237710 0.007092
v 0.868319 1.140125 -0.092271
v 0.859092 1.145262 0.106368
v 0.687015 1.221952 0.111382
v 0.694197 1.200793 -0.103554
v 0.905375 1.133631 0.004404
v 0.771545 1.171650 -0.115678
v 0.784718 1.527971 0.003760
v 0.725394 1.487000 0.004795
v 0.931192 1.520402 0.002502
v 0.969335 1.474710 0.002450
v 0.800298 1.527166 -0.045546
v 0.775486 1.485088 -0.091373
v 0.740072 1.486819 -0.073780
v 0.794829 1.527448 -0.043029
v 0.947077 1.476169 -0.083577
v 0.920558 1.520951 -0.043312
v 0.867822 1.523676 0.060550
v 0.856748 1.480888 0.107784
v 0.936477 1.476702 0.096622
v 0.914165 1.521282 0.054677
v 0.810248 1.526652 0.055868
v 0.768712 1.485508 0.100512
v 0.857054 1.480863 -0.099053
v 0.868252 1.523654 -0.051524
v -0.183450 1.136873 -0.074101
v -0.172267 1.050967 -0.099115
v -0.186566 0.972339 -0.071794
v -0.188608 1.127199 0.092588
v -0.177824 1.060347 0.114593
v -0.186118 0.981635 0.097493
v -0.244443 1.178732 0.012069
v -0.244443 0.936156 0.010013
v -0.244443 1.137456 -0.079891
v -0.244443 1.051550 -0.099224
v -0.244443 0.972922 -0.078108
v -0.244443 1.126953 0.098626
v -0.244443 1.060101 0.115634
v -0.244443 0.981388 0.102417
v -0.405234 1.247161 0.023088
v -0.519003 1.035116 0.021132
v -0.424592 1.211080 -0.064390
v -0.464883 1.135986 -0.082781
v -0.501759 1.067255 -0.062694
v -0.429518 1.201899 0.105425
v -0.460872 1.143461 0.121604
v -0.497789 1.074655 0.109032
v -0.583637 1.396829 0.035764
v -0.770433 1.245126 0.033831
v -0.615422 1.371016 -0.050712
v -0.681574 1.317291 -0.068892
v -0.742121 1.268119 -0.049036
v -0.623510 1.364447 0.117159
v -0.674989 1.322639 0.133153
v -0.735602 1.273414 0.120724
v -0.648692 1.511508 0.033975
v -0.868944 1.427311 0.032126
v -0.686169 1.497181 -0.048734
v -0.764170 1.467364 -0.066122
v -0.835562 1.440072 -0.047130
v -0.695706 1.493535 0.111825
v -0.756406 1.470331 0.127121
v -0.827874 1.443011 0.115235
v -0.536097 1.271797 0.111292
v -0.504018 1.310619 0.029426
v -0.626278 1.162659 0.114878
v -0.577513 1.221674 0.127378
v -0.529590 1.279672 -0.057551
v -0.582811 1.215263 -0.075836
v -0.631523 1.156311 -0.055865
v -0.654301 1.128745 0.027481
v -0.787944 1.709285 0.033520
v -0.745792 1.694830 0.033816
v -0.928415 1.618582 0.032141
v -0.909496 1.658547 0.032406
v -0.776866 1.681856 -0.041070
v -0.807510 1.701118 -0.013706
v -0.841540 1.654853 -0.056814
v -0.852139 1.682488 -0.024569
v -0.900735 1.630138 -0.039619
v -0.892006 1.665847 -0.012989
v -0.811684 1.699375 0.076378
v -0.784774 1.678555 0.104302
v -0.847318 1.684501 0.086184
v -0.835102 1.657540 0.118152
v -0.888522 1.667301 0.078701
v -0.894361 1.632799 0.107390
vn -0.0000 0.0194 -0.9998
vn -0.0000 0.0159 -0.9999
vn 0.6594 0.0439 -0.7505
vn 0.6592 0.0115 -0.7519
vn 0.9973 0.0741 -0.0023
vn 1.0000 0.0043 0.0039
vn 0.6608 0.0554 0.7485
vn 0.6559 0.0139 0.7547
vn -0.0000 0.0311 0.9995
vn -0.0000 0.0221 0.9998
vn -0.6608 0.0554 0.7485
vn -0.6555 0.0144 0.7551
vn -0.9973 0.0741 -0.0023
vn -0.7031 0.7061 0.0840
vn -0.6448 0.1591 0.7476
vn -0.9795 0.2013 -0.0000
vn -0.6594 0.0439 -0.7505
vn -0.6596 0.0120 -0.7515
vn -0.0000 -0.6188 -0.7855
vn 0.5360 -0.6221 -0.5707
vn 0.7782 -0.6280 -0.0025
vn 0.5346 -0.6289 0.5645
vn -0.0000 -0.6282 0.7781
vn -0.5346 -0.6289 0.5645
vn -0.7782 -0.6280 -0.0025
vn -0.5360 -0.6221 -0.5707
vn -0.6817 0.0215 -0.7313
vn -0.6724 0.0217 -0.7399
vn -0.0000 0.0331 -0.9995
vn -1.0000 0.0039 -0.0001
vn -1.0000 0.0041 -0.0000
vn -0.6818 0.0034 0.7316
vn -0.6724 0.0034 0.7401
vn -0.0000 0.0084 1.0000
vn 0.6822 0.0039 0.7312
vn 0.6728 0.0039 0.7398
vn 0.8210 -0.5677 0.0608
vn 0.6213 -0.3703 0.6905
vn 0.5146 -0.0668 0.8548
vn 0.3874 0.3436 0.8555
vn 0.4621 0.8804 0.1068
vn 0.6816 0.0222 -0.7314
vn 0.6723 0.0224 -0.7400
vn 0.3903 0.6312 -0.6703
vn 0.4238 0.2938 -0.8568
vn 0.5270 -0.0745 -0.8466
vn 0.6395 -0.4052 -0.6534
vn -0.6671 0.0223 -0.7446
vn -0.6967 -0.7159 0.0460
vn -0.6663 0.0039 0.7456
vn 0.6668 0.0034 0.7452
vn 1.0000 0.0042 -0.0000
vn 0.6667 0.0218 -0.7450
vn -0.4886 -0.4054 -0.7726
vn -0.4796 -0.0067 -0.8774
vn -0.4793 0.3951 -0.7837
vn -0.4888 0.3665 0.7917
vn -0.4782 0.0278 0.8778
vn -0.4818 -0.3584 0.7996
vn 0.6448 0.1591 0.7476
vn -0.0000 0.1234 0.9924
vn -0.6448 0.1591 -0.7476
vn 0.6448 0.1591 -0.7476
vn 0.9795 0.2013 -0.0000
vn -0.0000 0.1234 -0.9924
vn 0.5596 0.5348 -0.6332
vn 0.8384 0.5451 -0.0000
vn -0.5596 0.5348 0.6332
vn -0.8384 0.5451 -0.0000
vn 0.5596 0.5348 0.6332
vn -0.0000 0.5261 0.8504
vn 0.2352 0.9341 -0.2686
vn -0.0000 0.9340 -0.3573
vn -0.2352 0.9341 -0.2686
vn -0.3557 0.9346 -0.0000
vn 0.3557 0.9346 -0.0000
vn -0.5596 0.5348 -0.6332
vn -0.0000 0.5261 -0.8504
vn 0.2352 0.9341 0.2686
vn -0.0000 0.9340 0.3573
vn -0.2352 0.9341 0.2686
vn 0.0552 -0.0148 -0.9984
vn -0.2937 0.1554 -0.9432
vn -0.2320 0.4614 -0.8563
vn 0.0675 0.4010 -0.9136
vn -0.7619 0.3507 -0.5446
vn -0.9013 0.4172 0.1161
vn -0.8235 0.5585 0.0995
vn -0.6748 0.5352 -0.5081
vn -0.3247 0.9443 0.0527
vn -0.1672 0.9260 0.3386
vn 0.0624 0.9205 0.3858
vn 0.3594 0.8705 0.3362
vn 0.5041 0.8634 0.0224
vn -0.5368 0.2612 0.8022
vn -0.4713 0.5005 0.7262
vn 0.9271 -0.3731 0.0365
vn 0.6243 -0.2630 -0.7356
vn 0.6644 0.2880 -0.6897
vn 0.9743 0.2227 0.0343
vn 0.5848 -0.2461 0.7729
vn 0.6239 0.2927 0.7246
vn 0.0440 -0.0183 0.9989
vn 0.0582 0.4036 0.9131
vn 0.2888 -0.5796 0.7620
vn 0.4979 -0.8642 0.0725
vn 0.7401 -0.6709 0.0452
vn 0.4505 -0.4545 0.7684
vn 0.0204 -0.0704 0.9973
vn 0.0456 -0.0594 0.9972
vn 0.3337 -0.6521 -0.6808
vn 0.0466 -0.0895 -0.9949
vn 0.0585 -0.0594 -0.9965
vn 0.4917 -0.4929 -0.7179
vn -0.1914 0.4065 -0.8934
vn -0.2548 0.2664 -0.9296
vn -0.5293 0.8431 0.0950
vn -0.3069 0.5590 0.7703
vn -0.4680 0.4392 0.7669
vn -0.7443 0.6593 0.1065
vn -0.4220 0.7710 -0.4769
vn -0.6416 0.5824 -0.4992
vn -0.2493 0.9362 -0.2477
vn -0.0485 0.9282 -0.3689
vn 0.3733 0.8714 -0.3183
vn 0.0677 0.9187 -0.3891
vn 0.1436 0.5485 0.8237
vn 0.2259 0.9735 0.0364
vn 0.4644 0.8836 0.0606
vn 0.2989 0.4984 0.8138
vn 0.0388 0.0167 0.9991
vn -0.0843 -0.6197 0.7803
vn 0.0431 0.0085 0.9990
vn -0.2605 -0.5602 0.7863
vn -0.1165 -0.6656 -0.7371
vn -0.0220 -0.0393 -0.9990
vn 0.1063 0.5859 -0.8034
vn -0.1521 -0.9883 0.0141
vn 0.3533 0.4890 -0.7975
vn -0.0599 0.0036 -0.9982
vn -0.0519 0.0007 -0.9987
vn 0.4685 0.3761 -0.7994
vn -0.4507 -0.4896 -0.7464
vn -0.6404 -0.7675 0.0300
vn -0.8019 -0.5963 0.0365
vn -0.5499 -0.3853 -0.7410
vn -0.3409 -0.5855 -0.7355
vn -0.0696 -0.0112 -0.9975
vn 0.2397 0.5658 -0.7890
vn -0.4590 -0.8879 0.0294
vn 0.0241 0.0139 0.9996
vn 0.4552 0.3285 0.8275
vn 0.5011 0.2938 0.8140
vn 0.0127 0.0502 0.9987
vn -0.4826 -0.3641 0.7966
vn -0.5602 -0.2192 0.7988
vn -0.9209 -0.3887 0.0290
vn -0.3662 -0.4846 0.7944
vn 0.0485 -0.0059 0.9988
vn 0.3939 0.4102 0.8225
vn 0.6432 0.7632 0.0622
vn 0.8042 0.5900 0.0722
vn 0.3392 0.5755 0.7441
vn -0.1214 0.3867 0.9142
vn -0.6097 -0.2487 -0.7526
vn -0.9992 0.0296 0.0265
vn -0.7025 0.1519 -0.6952
vn -0.0374 0.0164 -0.9992
vn 0.5365 0.3041 -0.7872
vn 0.8754 0.4798 0.0584
vn 0.6822 0.7293 0.0525
vn 0.0618 0.9975 0.0333
vn -0.0928 0.9391 -0.3309
vn -0.3589 0.8390 -0.4090
vn -0.6119 0.7230 -0.3207
vn -0.7495 0.6618 0.0178
vn -0.5933 0.7281 0.3433
vn -0.3362 0.8505 0.4045
vn -0.0998 0.9342 0.3425
vn -0.1720 0.3657 -0.9147
vn 0.3660 0.5959 -0.7149
vn -0.6495 0.1695 0.7413
vt 0.684516 0.585114
vt 0.043279 0.404094
vt 0.653703 0.404139
vt 0.684516 0.647419
vt 0.044137 0.467917
vt 0.657964 0.460562
vt 0.641768 0.690205
vt 0.045971 0.529850
vt 0.044154 0.016944
vt 0.666777 0.510837
vt 0.668110 0.038293
vt 0.581313 0.688408
vt 0.043637 0.079315
vt 0.658355 0.087517
vt 0.538565 0.643082
vt 0.043279 0.143570
vt 0.653642 0.143960
vt 0.538565 0.580777
vt 0.043498 0.207825
vt 0.658370 0.200396
vt 0.581313 0.537991
vt 0.043881 0.270196
vt 0.045995 0.278337
vt 0.668129 0.249600
vt 0.666777 0.297442
vt 0.641768 0.539788
vt 0.044149 0.340271
vt 0.657965 0.347716
vt 0.354147 0.404115
vt 0.354957 0.467109
vt 0.357033 0.023371
vt 0.356689 0.524161
vt 0.953846 0.356570
vt 0.214730 0.906122
vt 0.356208 0.080717
vt 0.355707 0.143935
vt 0.356017 0.207171
vt 0.356691 0.284087
vt 0.356652 0.264518
vt 0.354958 0.341118
vt 0.257267 0.467391
vt 0.258999 0.525975
vt 0.258590 0.021155
vt 0.821667 0.278368
vt 0.095182 0.983056
vt 0.258035 0.080132
vt 0.257660 0.143805
vt 0.257889 0.207469
vt 0.258325 0.266447
vt 0.259023 0.282254
vt 0.257279 0.340840
vt 0.256457 0.404113
vt 0.388863 0.404116
vt 0.389671 0.466993
vt 0.391995 0.024298
vt 0.391424 0.523479
vt 0.391010 0.081035
vt 0.390450 0.143983
vt 0.390829 0.206982
vt 0.391410 0.284771
vt 0.391601 0.263694
vt 0.415440 0.537991
vt 0.249134 0.911070
vt 0.389670 0.341229
vt 0.478182 0.404134
vt 0.478980 0.466587
vt 0.482163 0.027363
vt 0.481011 0.521511
vt 0.479968 0.082461
vt 0.478917 0.144029
vt 0.480031 0.205614
vt 0.481013 0.286777
vt 0.482312 0.260548
vt 0.530425 0.599352
vt 0.373390 0.850661
vt 0.479007 0.341691
vt 0.695135 0.450851
vt 0.690387 0.404139
vt 0.710893 0.496943
vt 0.711121 0.052494
vt 0.695140 0.097626
vt 0.690248 0.143956
vt 0.695146 0.190282
vt 0.711129 0.235402
vt 0.710893 0.311335
vt 0.695135 0.357427
vt 0.348316 0.498814
vt 0.935258 0.338028
vt 0.333809 0.480253
vt 0.920361 0.319771
vt 0.300500 0.472749
vt 0.895092 0.295946
vt 0.265238 0.490640
vt 0.858792 0.278337
vt 0.271688 0.053665
vt 0.131458 0.978617
vt 0.303575 0.066020
vt 0.161828 0.960926
vt 0.338660 0.057951
vt 0.188186 0.934998
vt 0.753022 0.425640
vt 0.722575 0.441623
vt 0.717560 0.404139
vt 0.748158 0.404139
vt 0.768174 0.436653
vt 0.767067 0.111971
vt 0.743942 0.478425
vt 0.743411 0.070895
vt 0.752158 0.122774
vt 0.722202 0.106929
vt 0.747350 0.143953
vt 0.717173 0.143954
vt 0.752158 0.165131
vt 0.722206 0.180977
vt 0.768174 0.371625
vt 0.767067 0.175933
vt 0.743413 0.217004
vt 0.743942 0.329853
vt 0.753022 0.382637
vt 0.722575 0.366655
vt 0.115887 0.785321
vt 0.158595 0.780853
vt 0.905483 0.480245
vt 0.881706 0.470659
vt 0.195449 0.774579
vt 0.933294 0.485741
vt 0.813848 0.479449
vt 0.043279 0.771567
vt 0.776314 0.488493
vt 0.852472 0.471753
vt 0.082935 0.779532
vt 0.168282 0.872835
vt 0.893474 0.382071
vt 0.788896 0.380781
vt 0.059475 0.879711
vt 0.864862 0.374978
vt 0.131099 0.882387
vt 0.914956 0.393554
vt 0.939901 0.407667
vt 0.202365 0.853738
vt 0.827295 0.375700
vt 0.098712 0.883263
vt 0.127880 0.671697
vt 0.910321 0.581109
vt 0.204966 0.679676
vt 0.942667 0.578530
vt 0.829518 0.599954
vt 0.098804 0.661214
vt 0.162811 0.675854
vt 0.892343 0.578729
vt 0.059400 0.645120
vt 0.792702 0.616169
vt 0.863686 0.586650
vt 0.196796 0.561253
vt 0.936359 0.698129
vt 0.214730 0.583388
vt 0.953846 0.673530
vt 0.150409 0.537991
vt 0.888972 0.724420
vt 0.861330 0.723500
vt 0.124520 0.539199
vt 0.921069 0.688673
vt 0.915623 0.669899
vt 0.926308 0.666409
vt 0.922891 0.688094
vt 0.875187 0.694183
vt 0.888762 0.706717
vt 0.164498 0.563041
vt 0.159022 0.580710
vt 0.140206 0.569859
vt 0.152218 0.557077
vt 0.179741 0.570463
vt 0.180147 0.590560
vt 0.896149 0.680811
vt 0.902692 0.698595
vt 0.464356 0.322599
vt 0.347040 0.881018
vt 0.432358 0.331672
vt 0.319573 0.901561
vt 0.403766 0.319392
vt 0.288555 0.911549
vt 0.461966 0.228986
vt 0.504615 0.571777
vt 0.437025 0.220483
vt 0.483692 0.554908
vt 0.408052 0.228080
vt 0.455643 0.542222
vt 0.528608 0.605514
vt 0.369998 0.845190
vt 0.411848 0.543625
vt 0.247106 0.904481
vt 0.335356 0.860878
vt 0.306926 0.877632
vt 0.280564 0.891169
vt 0.493533 0.590086
vt 0.471017 0.576597
vt 0.445591 0.561537
vt 0.357882 0.780579
vt 0.513317 0.669633
vt 0.384946 0.650822
vt 0.224995 0.796689
vt 0.321642 0.786857
vt 0.288622 0.791055
vt 0.259103 0.794220
vt 0.476289 0.665380
vt 0.450917 0.661903
vt 0.421710 0.657512
vt 0.511113 0.757960
vt 0.359360 0.692690
vt 0.387666 0.775939
vt 0.228962 0.673440
vt 0.322852 0.689185
vt 0.290303 0.685005
vt 0.261015 0.680311
vt 0.475662 0.762527
vt 0.451182 0.765738
vt 0.423484 0.769643
vt 0.521143 0.806178
vt 0.367124 0.643398
vt 0.254250 0.601504
vt 0.413024 0.849206
vt 0.334861 0.636830
vt 0.306814 0.626641
vt 0.282005 0.615270
vt 0.489195 0.814234
vt 0.467370 0.822507
vt 0.442590 0.833882
vt 0.472357 0.714430
vt 0.355068 0.736681
vt 0.508801 0.713803
vt 0.418213 0.714442
vt 0.446961 0.714523
vt 0.318378 0.737940
vt 0.285724 0.737737
vt 0.256458 0.736983
vt 0.381531 0.713644
vt 0.222870 0.734726
vt 0.359979 0.554166
vt 0.518764 0.895608
vt 0.530425 0.880265
vt 0.373390 0.568190
vt 0.295143 0.540731
vt 0.454062 0.910290
vt 0.314601 0.537991
vt 0.473421 0.912514
vt 0.344961 0.576602
vt 0.344764 0.563990
vt 0.327104 0.571317
vt 0.331235 0.560222
vt 0.311249 0.564346
vt 0.319603 0.554739
vt 0.502518 0.887475
vt 0.502508 0.875027
vt 0.491360 0.890433
vt 0.487509 0.878957
vt 0.479270 0.895240
vt 0.471512 0.885284
s 1
usemtl cacturs_1
f 41/65/1 2/3/2 4/6/3 42/66/4
f 42/66/4 4/6/3 6/10/5 43/68/6
f 43/67/6 6/11/5 8/14/7 44/69/8
f 44/69/8 8/14/7 10/17/9 45/70/10
f 45/70/10 10/17/9 12/20/11 46/71/12
f 46/71/12 12/20/11 14/24/13 47/73/14
f 14/24/13 12/20/11 54/83/15 55/84/16
f 47/72/14 14/25/13 16/28/17 48/76/18
f 48/76/18 16/28/17 2/3/2 41/65/1
f 1/1/19 3/4/20 5/7/21 7/12/22 9/15/23 11/18/24 13/21/25 15/26/26
f 31/51/27 24/40/28 17/29/29 32/52/29
f 30/50/30 23/38/31 24/40/28 31/51/27
f 29/48/32 22/37/33 23/39/31 30/49/30
f 28/47/34 21/36/34 22/37/33 29/48/32
f 27/46/35 20/35/36 21/36/34 28/47/34
f 26/43/37 61/95/38 62/97/39 63/99/40 19/31/41 20/35/36 27/46/35
f 25/41/42 18/30/43 19/32/41 57/87/44 58/89/45 59/91/46 60/93/47 26/42/37
f 32/52/29 17/29/29 18/30/43 25/41/42
f 1/2/19 32/52/29 25/41/42 3/5/20
f 3/5/20 25/41/42 26/42/37 5/8/21
f 5/9/21 26/43/37 27/46/35 7/13/22
f 7/13/22 27/46/35 28/47/34 9/16/23
f 9/16/23 28/47/34 29/48/32 11/19/24
f 11/19/24 29/48/32 30/49/30 13/22/25
f 13/23/25 30/50/30 31/51/27 15/27/26
f 15/27/26 31/51/27 32/52/29 1/2/19
f 24/40/28 40/64/48 33/53/29 17/29/29
f 23/38/31 39/60/49 40/64/48 24/40/28
f 22/37/33 38/59/50 39/61/49 23/39/31
f 21/36/34 37/58/34 38/59/50 22/37/33
f 20/35/36 36/57/51 37/58/34 21/36/34
f 19/31/41 35/55/52 36/57/51 20/35/36
f 18/30/43 34/54/53 35/56/52 19/32/41
f 17/29/29 33/53/29 34/54/53 18/30/43
f 40/64/48 48/76/18 41/65/1 33/53/29
f 39/60/49 127/180/54 126/178/55 125/176/56 47/72/14 48/76/18 40/64/48
f 38/59/50 46/71/12 47/73/14 128/182/57 129/184/58 130/186/59 39/61/49
f 37/58/34 45/70/10 46/71/12 38/59/50
f 36/57/51 44/69/8 45/70/10 37/58/34
f 35/55/52 43/67/6 44/69/8 36/57/51
f 34/54/53 42/66/4 43/68/6 35/56/52
f 33/53/29 41/65/1 42/66/4 34/54/53
f 10/17/9 8/14/7 52/81/60 53/82/61
f 16/28/17 14/25/13 55/85/16 56/86/62
f 6/10/5 4/6/3 49/77/63 51/79/64
f 12/20/11 10/17/9 53/82/61 54/83/15
f 2/3/2 16/28/17 56/86/62 50/78/65
f 4/6/3 2/3/2 50/78/65 49/77/63
f 8/14/7 6/11/5 51/80/64 52/81/60
f 51/79/64 49/77/63 65/102/66 69/107/67
f 55/84/16 54/83/15 75/114/68 77/117/69
f 53/82/61 52/81/60 71/110/70 73/112/71
f 64/101/72 67/104/73 78/119/74 76/115/75 68/105/76
f 52/81/60 51/80/64 69/108/67 71/110/70
f 56/86/62 55/85/16 77/118/69 79/120/77
f 54/83/15 53/82/61 73/112/71 75/114/68
f 50/78/65 56/86/62 79/120/77 66/103/78
f 65/102/66 66/103/78 67/104/73 64/101/72
f 69/107/67 65/102/66 64/101/72 68/105/76
f 71/110/70 69/108/67 68/106/76 70/109/79
f 73/112/71 71/110/70 70/109/79 72/111/80
f 75/114/68 73/112/71 72/111/80 74/113/81
f 77/117/69 75/114/68 74/113/81 76/116/75
f 79/120/77 77/118/69 76/115/75 78/119/74
f 66/103/78 79/120/77 78/119/74 67/104/73
f 49/77/63 50/78/65 66/103/78 65/102/66
f 106/153/82 104/150/83 112/163/84 123/174/85
f 99/144/86 100/146/87 108/157/88 113/164/89
f 107/154/90 121/172/91 117/168/92 120/171/93 109/158/94
f 100/145/87 103/149/95 122/173/96 108/156/88
f 105/152/97 101/147/98 115/166/99 110/160/100
f 102/148/101 105/151/97 110/161/100 119/170/102
f 101/147/98 106/153/82 123/174/85 115/166/99
f 98/143/103 102/148/101 119/170/102 118/169/104
f 103/149/95 98/143/103 118/169/104 122/173/96
f 104/150/83 99/144/86 113/164/89 112/163/84
f 97/142/105 91/135/106 86/128/107 88/131/108
f 93/137/109 97/142/105 88/131/108 80/121/110
f 96/141/111 92/136/112 87/130/113 85/127/114
f 92/136/112 90/133/115 83/124/116 87/130/113
f 91/134/106 96/141/111 85/127/114 86/129/107
f 95/140/117 89/132/118 81/122/119 84/125/120
f 94/138/121 95/139/117 84/126/120 82/123/122
f 89/132/118 93/137/109 80/121/110 81/122/119
f 90/133/115 94/138/121 82/123/122 83/124/116
f 58/90/45 57/88/44 94/138/121 90/133/115
f 63/100/40 62/98/39 93/137/109 89/132/118
f 57/88/44 19/33/41 95/139/117 94/138/121
f 19/34/41 63/100/40 89/132/118 95/140/117
f 26/44/37 60/94/47 96/141/111 91/134/106
f 59/92/46 58/90/45 90/133/115 92/136/112
f 60/94/47 59/92/46 92/136/112 96/141/111
f 62/98/39 61/96/38 97/142/105 93/137/109
f 61/96/38 26/45/37 91/135/106 97/142/105
f 88/131/108 86/128/107 105/151/97 102/148/101
f 80/121/110 88/131/108 102/148/101 98/143/103
f 85/127/114 87/130/113 106/153/82 101/147/98
f 87/130/113 83/124/116 104/150/83 106/153/82
f 86/129/107 85/127/114 101/147/98 105/152/97
f 84/125/120 81/122/119 103/149/95 100/145/87
f 82/123/122 84/126/120 100/146/87 99/144/86
f 81/122/119 80/121/110 98/143/103 103/149/95
f 83/124/116 82/123/122 99/144/86 104/150/83
f 112/163/84 113/164/89 114/165/123 111/162/124
f 110/160/100 115/166/99 116/167/125 109/159/94
f 118/169/104 119/170/102 120/171/93 117/168/92
f 122/173/96 118/169/104 117/168/92 121/172/91
f 108/156/88 122/173/96 121/172/91 107/154/90
f 115/166/99 123/174/85 124/175/126 116/167/125
f 119/170/102 110/161/100 109/158/94 120/171/93
f 113/164/89 108/157/88 107/155/90 114/165/123
f 123/174/85 112/163/84 111/162/124 124/175/126
f 109/159/94 116/167/125 124/175/126 111/162/124 114/165/123 107/155/90
f 136/195/127 131/188/128 139/199/129 144/205/130
f 128/183/57 47/74/14 131/188/128 136/195/127
f 130/187/59 129/185/58 137/196/131 138/197/132
f 138/197/132 137/196/131 145/206/133 146/207/134
f 126/179/55 127/181/54 135/194/135 134/193/136
f 47/75/14 125/177/56 133/192/137 131/189/128
f 39/62/49 130/187/59 138/197/132 132/190/138
f 129/185/58 128/183/57 136/195/127 137/196/131
f 127/181/54 39/63/49 132/191/138 135/194/135
f 125/177/56 126/179/55 134/193/136 133/192/137
f 167/233/139 168/234/140 150/213/141 149/212/142
f 169/235/143 170/237/144 148/211/145 151/214/146
f 134/193/136 135/194/135 143/204/147 142/203/148
f 131/189/128 133/192/137 141/202/149 139/198/129
f 132/190/138 138/197/132 146/207/134 140/200/150
f 137/196/131 136/195/127 144/205/130 145/206/133
f 135/194/135 132/191/138 140/201/150 143/204/147
f 133/192/137 134/193/136 142/203/148 141/202/149
f 153/216/151 152/215/152 160/225/153 161/226/154
f 148/210/145 154/217/155 162/227/156 156/221/157
f 165/231/158 166/232/159 153/216/151 154/217/155
f 163/228/160 164/230/161 147/208/162 152/215/152
f 168/234/140 169/235/143 151/214/146 150/213/141
f 164/229/161 167/233/139 149/212/142 147/209/162
f 170/236/144 165/231/158 154/217/155 148/210/145
f 166/232/159 163/228/160 152/215/152 153/216/151
f 161/226/154 160/225/153 182/253/163 184/255/164
f 159/224/165 156/220/157 173/242/166 179/250/167
f 151/214/146 148/211/145 156/220/157 159/224/165
f 149/212/142 150/213/141 158/223/168 157/222/169
f 154/217/155 153/216/151 161/226/154 162/227/156
f 152/215/152 147/208/162 155/218/170 160/225/153
f 150/213/141 151/214/146 159/224/165 158/223/168
f 147/209/162 149/212/142 157/222/169 155/219/170
f 160/225/153 155/218/170 172/240/171 182/253/163
f 171/238/172 176/247/173 178/249/174 180/251/175 174/244/176
f 174/245/176 185/256/177 183/254/178 181/252/179 171/239/172
f 157/222/169 158/223/168 177/248/180 175/246/181
f 162/227/156 161/226/154 184/255/164 186/257/182
f 156/221/157 162/227/156 186/257/182 173/243/166
f 158/223/168 159/224/165 179/250/167 177/248/180
f 145/206/133 144/205/130 163/228/160 166/232/159
f 172/241/171 175/246/181 176/247/173 171/238/172
f 175/246/181 177/248/180 178/249/174 176/247/173
f 177/248/180 179/250/167 180/251/175 178/249/174
f 179/250/167 173/242/166 174/244/176 180/251/175
f 171/239/172 181/252/179 182/253/163 172/240/171
f 181/252/179 183/254/178 184/255/164 182/253/163
f 183/254/178 185/256/177 186/257/182 184/255/164
f 185/256/177 174/245/176 173/243/166 186/257/182
f 155/219/170 157/222/169 175/246/181 172/241/171
f 140/200/150 146/207/134 165/231/158 170/236/144
f 139/198/129 141/202/149 167/233/139 164/229/161
f 142/203/148 143/204/147 169/235/143 168/234/140
f 144/205/130 139/199/129 164/230/161 163/228/160
f 146/207/134 145/206/133 166/232/159 165/231/158
f 143/204/147 140/201/150 170/237/144 169/235/143
f 141/202/149 142/203/148 168/234/140 167/233/139
f 68/106/76 76/116/75 74/113/81 72/111/80 70/109/79
